HIERARCHY
ROOT Hips
{
	OFFSET 56.493401 0.401933 95.225502
	CHANNELS 6 Xposition Yposition Zposition Xrotation Yrotation Zrotation
	JOINT spine
	{
		OFFSET 0.000000 -0.458068 7.965683
		CHANNELS 3 Xrotation Yrotation Zrotation
		JOINT spine1
		{
			OFFSET 0.000000 -0.000002 10.243103
			CHANNELS 3 Xrotation Yrotation Zrotation
			JOINT spine2
			{
				OFFSET 0.000000 -0.000002 9.814751
				CHANNELS 3 Xrotation Yrotation Zrotation
				JOINT Neck
				{
					OFFSET 0.000000 -1.201384 25.198593
					CHANNELS 3 Xrotation Yrotation Zrotation
					JOINT Head
					{
						OFFSET 0.000000 -0.000001 7.613144
						CHANNELS 3 Xrotation Yrotation Zrotation
						End Site
						{
							OFFSET 0.000000 6.077327 18.428101
						}
					}
				}
				JOINT RightShoulder
				{
					OFFSET -4.132698 0.575449 10.599197
					CHANNELS 3 Xrotation Yrotation Zrotation
					JOINT RightArm
					{
						OFFSET 0.000000 -0.000002 13.901794
						CHANNELS 3 Xrotation Yrotation Zrotation
						JOINT RightArmRoll
						{
							OFFSET 0.000000 -0.000001 7.017883
							CHANNELS 3 Xrotation Yrotation Zrotation
							JOINT RightForeArm
							{
								OFFSET 0.000000 -0.000003 20.440598
								CHANNELS 3 Xrotation Yrotation Zrotation
								JOINT RightForeArmRoll
								{
									OFFSET 0.000000 -0.000001 7.875153
									CHANNELS 3 Xrotation Yrotation Zrotation
									JOINT RightHand
									{
										OFFSET 0.000000 -0.000003 15.803696
										CHANNELS 3 Xrotation Yrotation Zrotation
										End Site
										{
											OFFSET 0.000000 0.000000 0.100006
										}
									}
								}
							}
						}
					}
				}
				JOINT LeftShoulder
				{
					OFFSET 4.132698 0.575449 10.599197
					CHANNELS 3 Xrotation Yrotation Zrotation
					JOINT LeftArm
					{
						OFFSET 0.000000 -0.000002 13.901794
						CHANNELS 3 Xrotation Yrotation Zrotation
						JOINT LeftArmRoll
						{
							OFFSET 0.000000 -0.000001 7.017883
							CHANNELS 3 Xrotation Yrotation Zrotation
							JOINT LeftForeArm
							{
								OFFSET 0.000000 -0.000003 20.440598
								CHANNELS 3 Xrotation Yrotation Zrotation
								JOINT LeftForeArmRoll
								{
									OFFSET 0.000000 -0.000001 7.875153
									CHANNELS 3 Xrotation Yrotation Zrotation
									JOINT LeftHand
									{
										OFFSET 0.000000 -0.000003 15.803696
										CHANNELS 3 Xrotation Yrotation Zrotation
										End Site
										{
											OFFSET 0.000000 0.000000 0.100006
										}
									}
								}
							}
						}
					}
				}
			}
		}
	}
	JOINT RightUpLeg
	{
		OFFSET -7.060478 1.086100 -1.294701
		CHANNELS 3 Xrotation Yrotation Zrotation
		JOINT RightUpLegRoll
		{
			OFFSET 0.000000 -0.000003 18.530800
			CHANNELS 3 Xrotation Yrotation Zrotation
			JOINT RightLeg
			{
				OFFSET 0.000000 0.000004 -22.947601
				CHANNELS 3 Xrotation Yrotation Zrotation
				JOINT RightLegRoll
				{
					OFFSET 0.000000 -0.000004 23.022598
					CHANNELS 3 Xrotation Yrotation Zrotation
					JOINT RightFoot
					{
						OFFSET 0.000000 -0.000003 19.162498
						CHANNELS 3 Xrotation Yrotation Zrotation
						JOINT RightToeBase
						{
							OFFSET 0.000000 -0.000003 16.018799
							CHANNELS 3 Xrotation Yrotation Zrotation
							End Site
							{
								OFFSET 0.006790 0.894205 7.757812
							}
						}
					}
				}
			}
		}
	}
	JOINT LeftUpLeg
	{
		OFFSET 7.060478 1.086100 -1.294701
		CHANNELS 3 Xrotation Yrotation Zrotation
		JOINT LeftUpLegRoll
		{
			OFFSET 0.000000 -0.000003 18.530899
			CHANNELS 3 Xrotation Yrotation Zrotation
			JOINT LeftLeg
			{
				OFFSET 0.000000 -0.000004 22.947495
				CHANNELS 3 Xrotation Yrotation Zrotation
				JOINT LeftLegRoll
				{
					OFFSET 0.000000 -0.000004 23.235504
					CHANNELS 3 Xrotation Yrotation Zrotation
					JOINT LeftFoot
					{
						OFFSET 0.000000 -0.000003 18.949600
						CHANNELS 3 Xrotation Yrotation Zrotation
						JOINT LeftToeBase
						{
							OFFSET 0.000000 -0.000003 16.018799
							CHANNELS 3 Xrotation Yrotation Zrotation
							End Site
							{
								OFFSET -0.030430 0.894206 7.757812
							}
						}
					}
				}
			}
		}
	}
}
MOTION
Frames: 11
Frame Time: 0.041667
59.038700 1.792896 95.052101 0.775053 -4.923124 76.581522 -0.114034 0.628863 0.739852 3.763547 1.264248 1.470214 5.408569 1.281770 1.454324 -11.234708 35.978216 10.683271 22.776418 -22.435655 8.161553 8.927798 -37.964893 14.591243 -41.916041 -157.640752 -52.121802 -0.000000 -0.000000 0.000005 7.916661 -9.088222 -0.510319 -0.000008 -0.000001 -3.009708 -4.999800 -7.999907 -0.000025 -57.440484 62.762704 66.450419 -78.989068 117.070986 85.427546 -0.000004 -0.000004 -0.000008 26.512880 16.310919 -2.937230 -0.000001 0.000001 3.000011 -4.999741 7.999159 -0.000048 9.360931 -177.303337 5.179247 -179.999991 0.000005 -1.298003 162.251103 -0.777162 -0.814745 -0.000005 -0.000006 0.705203 76.264178 6.652577 2.323661 34.975961 -7.043752 2.487874 -11.728279 180.011767 4.056262 -0.000008 -0.000004 -0.946687 -13.273770 -0.360083 0.346183 -0.000006 0.000001 -0.113927 68.648394 -6.918835 -2.093233 25.456955 7.355617 -0.000000 
59.035999 1.798137 95.049400 0.810127 -4.917722 76.687656 -0.112308 0.625806 0.743705 3.767469 1.257997 1.478859 5.412495 1.275619 1.463010 -11.079666 35.909726 10.627549 22.779364 -22.338678 8.146881 8.922578 -38.111571 14.550687 -41.776627 -157.391901 -51.805325 -0.000000 -0.000000 0.000005 7.454728 -9.054316 -0.529054 -0.000008 -0.000001 -3.009711 -4.999803 -7.999905 -0.000023 -57.439070 62.800154 66.440358 -79.108241 117.036794 85.372017 -0.000003 -0.000004 -0.000009 26.251356 16.270784 -2.897299 0.000001 0.000001 3.000011 -4.999738 7.999158 -0.000048 9.383236 -177.295619 5.185920 -179.999991 0.000005 -1.296995 162.293095 -0.780207 -0.814092 -0.000003 -0.000006 0.703803 76.275666 6.652601 2.323385 34.973055 -7.046336 2.472587 -11.737493 180.073443 4.106832 -0.000005 -0.000004 -0.945019 -13.241603 -0.383731 0.342830 -0.000006 0.000001 -0.113397 68.646721 -6.919225 -2.092312 25.456957 7.355613 0.000000 
59.019901 1.813477 95.060600 0.843617 -4.911292 76.792828 -0.110717 0.622632 0.747658 3.771131 1.251495 1.487655 5.416153 1.269220 1.471884 -10.926045 35.838788 10.570867 22.781486 -22.243541 8.131621 8.916081 -38.260954 14.508071 -41.637404 -157.138884 -51.484026 0.000002 -0.000003 0.000003 7.003018 -9.016110 -0.547512 -0.000008 -0.000003 -3.009710 -4.999802 -7.999906 -0.000023 -57.435047 62.837365 66.427415 -79.225413 117.001222 85.311180 -0.000003 -0.000004 -0.000009 25.988745 16.227525 -2.856438 -0.000001 0.000001 3.000011 -4.999736 7.999159 -0.000047 9.404055 -177.288884 5.191593 -179.999991 0.000005 -1.294997 162.334185 -0.783236 -0.813443 -0.000004 -0.000007 0.702373 76.286041 6.652623 2.322976 34.971552 -7.048850 2.457436 -11.747813 180.134123 4.156898 -0.000004 -0.000004 -0.943334 -13.209142 -0.407469 0.339427 -0.000006 0.000000 -0.112737 68.644016 -6.919657 -2.091365 25.456955 7.355615 -0.000001 
59.020802 1.841858 95.049400 0.875320 -4.903710 76.896933 -0.109301 0.619326 0.751712 3.774462 1.244735 1.496570 5.419479 1.262573 1.480920 -10.773287 35.765172 10.512950 22.781756 -22.150684 8.115704 8.908270 -38.413834 14.463178 -41.498040 -156.880771 -51.157755 0.000002 0.000001 0.000006 6.564124 -8.974339 -0.565649 -0.000006 -0.000001 -3.009712 -4.999803 -7.999905 -0.000023 -57.427110 62.873906 66.410203 -79.339020 116.963902 85.244490 -0.000003 -0.000003 -0.000009 25.726278 16.181528 -2.814898 0.000003 0.000001 3.000011 -4.999743 7.999160 -0.000047 9.423180 -177.284103 5.196106 -179.999991 0.000005 -1.294000 162.374087 -0.786274 -0.812797 -0.000007 -0.000007 0.700912 76.295289 6.652614 2.322631 34.971767 -7.051323 2.442382 -11.759748 180.192876 4.206301 -0.000006 -0.000004 -0.941627 -13.176880 -0.431089 0.335984 -0.000006 0.000000 -0.111944 68.640150 -6.920121 -2.090393 25.456957 7.355612 0.000000 
59.007095 1.850798 95.061798 0.905015 -4.894843 76.999926 -0.108074 0.615873 0.755867 3.777413 1.237696 1.505579 5.422427 1.255638 1.490092 -10.620877 35.688811 10.453558 22.778937 -22.060463 8.098937 8.899081 -38.571014 14.415772 -41.358151 -156.616552 -50.826610 0.000002 -0.000001 0.000007 6.140672 -8.929749 -0.583450 -0.000006 -0.000002 -3.009707 -4.999807 -7.999909 -0.000031 -57.414017 62.909143 66.387581 -79.447859 116.924724 85.171762 -0.000003 -0.000003 -0.000009 25.465232 16.132798 -2.772778 -0.000001 0.000001 3.000011 -4.999742 7.999158 -0.000047 9.440436 -177.281276 5.199455 -179.999991 0.000005 -1.293005 162.412172 -0.789305 -0.813184 -0.000004 -0.000006 0.699441 76.303520 6.652570 2.322138 34.974199 -7.053736 2.427386 -11.773796 180.249635 4.254678 -0.000005 -0.000004 -0.939900 -13.145321 -0.454381 0.332518 -0.000006 0.000000 -0.111001 68.634925 -6.920564 -2.089604 25.456955 7.355613 -0.000001 
58.981403 1.872998 95.062698 0.932502 -4.884548 77.101709 -0.107063 0.612258 0.760116 3.779933 1.230369 1.514639 5.424944 1.248425 1.499370 -10.468292 35.609751 10.392467 22.771965 -21.973133 8.081177 8.888491 -38.733412 14.365628 -41.217822 -156.344519 -50.491357 0.000002 -0.000003 0.000004 5.735240 -8.883042 -0.600949 -0.000008 -0.000002 -3.009710 -4.999800 -7.999903 -0.000024 -57.394667 62.942461 66.358334 -79.549717 116.883279 85.091774 -0.000003 -0.000005 -0.000009 25.206888 16.081458 -2.730218 -0.000000 0.000001 3.000010 -4.999744 7.999158 -0.000048 9.455635 -177.279418 5.201793 -179.999991 0.000005 -1.290995 162.448167 -0.793265 -0.812894 -0.000003 -0.000006 0.697975 76.310637 6.652539 2.321617 34.979151 -7.056100 2.412404 -11.790451 180.303470 4.301874 -0.000006 -0.000004 -0.938145 -13.114964 -0.477136 0.329041 -0.000006 0.000000 -0.109893 68.628293 -6.920956 -2.088994 25.456957 7.355613 0.000000 
58.981598 1.891595 95.047600 0.957578 -4.872693 77.202147 -0.106287 0.608466 0.764462 3.781972 1.222732 1.523718 5.426977 1.240904 1.508731 -10.314985 35.527755 10.329409 22.759737 -21.889129 8.062324 8.876393 -38.901715 14.312471 -41.076956 -156.062869 -50.152696 -0.000002 -0.000002 0.000003 5.350424 -8.834936 -0.618199 -0.000008 -0.000001 -3.009708 -4.999806 -7.999908 -0.000030 -57.367271 62.973408 66.320734 -79.643496 116.839443 85.004464 -0.000004 -0.000004 -0.000009 24.952542 16.027638 -2.687355 -0.000001 0.000001 3.000011 -4.999744 7.999160 -0.000047 9.468567 -177.280511 5.202796 -179.999991 0.000005 -1.289999 162.481649 -0.797229 -0.812636 -0.000005 -0.000007 0.696521 76.316941 6.652433 2.320932 34.987043 -7.058421 2.397406 -11.810316 180.355339 4.347324 -0.000004 -0.000004 -0.936371 -13.086306 -0.499144 0.325570 -0.000006 0.000001 -0.108611 68.620076 -6.921312 -2.088476 25.456953 7.355611 0.000000 
58.966301 1.896086 95.050110 0.980063 -4.859154 77.301219 -0.105764 0.604484 0.768901 3.783481 1.214778 1.532792 5.428480 1.233056 1.518152 -10.160442 35.442750 10.264162 22.741086 -21.808707 8.042211 8.862767 -39.076824 14.256078 -40.934922 -155.771316 -49.809957 -0.000002 -0.000002 0.000005 4.988818 -8.786147 -0.635298 -0.000008 -0.000002 -3.009712 -4.999805 -7.999905 -0.000027 -57.331331 63.001323 66.274275 -79.727330 116.793052 84.908943 -0.000004 -0.000003 -0.000009 24.703449 15.971380 -2.644256 0.000002 0.000001 3.000011 -4.999745 7.999157 -0.000047 9.479077 -177.282546 5.202804 -179.999991 0.000005 -1.289002 162.512139 -0.801180 -0.812417 -0.000003 -0.000007 0.695090 76.322214 6.652290 2.320304 34.998152 -7.060701 2.382325 -11.833682 180.405213 4.390660 -0.000005 -0.000004 -0.934569 -13.059644 -0.520195 0.322115 -0.000006 0.000001 -0.107141 68.610070 -6.921692 -2.088075 25.456959 7.355613 -0.000001 
58.951099 1.909217 95.041100 0.999735 -4.844186 77.399328 -0.105438 0.600246 0.773660 3.784621 1.206354 1.542305 5.429614 1.224742 1.528117 -10.005585 35.353964 10.196018 22.718053 -21.732214 8.020498 8.847731 -39.260440 14.196153 -40.790518 -155.469394 -49.455825 -0.000002 -0.000001 0.000003 4.645446 -8.731611 -0.652211 -0.000005 -0.000003 -3.009660 -4.999802 -7.999903 -0.000023 -57.288140 63.027271 66.220187 -79.803432 116.744995 84.804926 -0.000004 -0.000005 -0.000009 24.455591 15.912273 -2.600623 0.000002 0.000001 3.000011 -4.999741 7.999159 -0.000047 9.487648 -177.288543 5.200904 -179.999991 0.000005 -1.288005 162.539514 -0.806070 -0.812536 -0.000004 -0.000007 0.693668 76.325581 6.652092 2.319382 35.014227 -7.062828 2.367561 -11.860052 180.451166 4.432616 -0.000006 -0.000004 -0.932728 -13.034191 -0.540734 0.318576 -0.000006 0.000001 -0.105413 68.597735 -6.922025 -2.087809 25.456957 7.355612 0.000000 
58.944798 1.923857 95.040909 1.016725 -4.828154 77.496781 -0.105220 0.595721 0.778911 3.785568 1.197352 1.552611 5.430558 1.215870 1.539011 -9.851715 35.260790 10.124757 22.693565 -21.659694 7.997248 8.831467 -39.452948 14.132762 -40.643717 -155.156968 -49.085960 0.000000 -0.000002 0.000005 4.313677 -8.666788 -0.668712 -0.000007 -0.000001 -3.009522 -4.999804 -7.999905 -0.000024 -57.240414 63.052844 66.161078 -79.875080 116.696309 84.692700 -0.000003 -0.000004 -0.000009 24.204869 15.849322 -2.555990 -0.000001 0.000001 3.000011 -4.999741 7.999158 -0.000047 9.494906 -177.296493 5.197136 -179.999991 0.000005 -1.286993 162.564199 -0.809997 -0.812377 -0.000004 -0.000008 0.692209 76.325916 6.651870 2.318436 35.035633 -7.064749 2.353398 -11.888230 180.494183 4.473639 -0.000004 -0.000004 -0.930845 -13.008535 -0.561333 0.314860 -0.000006 0.000001 -0.103389 68.582988 -6.922370 -2.087600 25.456959 7.355613 -0.000000 
58.932201 1.949985 95.028610 1.031371 -4.811072 77.593606 -0.105132 0.590946 0.784561 3.786306 1.187852 1.563555 5.431289 1.206501 1.550656 -9.698861 35.163422 10.050854 22.667424 -21.590616 7.972567 8.813942 -39.653053 14.066154 -40.493965 -154.835525 -48.702111 0.000002 -0.000000 0.000006 3.993619 -8.593090 -0.684634 -0.000005 -0.000003 -3.009310 -4.999803 -7.999904 -0.000022 -57.188429 63.078020 66.097346 -79.942528 116.646736 84.572768 -0.000004 -0.000003 -0.000010 23.951766 15.782899 -2.510561 -0.000000 0.000001 3.000011 -4.999744 7.999158 -0.000047 9.500766 -177.308391 5.191344 -179.999991 0.000005 -1.285996 162.586383 -0.813915 -0.813261 -0.000004 -0.000007 0.690712 76.323812 6.651653 2.317131 35.061577 -7.066510 2.339731 -11.918213 180.535219 4.513660 -0.000004 -0.000004 -0.928923 -12.982985 -0.581968 0.310989 -0.000006 0.000001 -0.101110 68.566029 -6.922706 -2.087626 25.456959 7.355613 -0.000000 
